<?xml version="1.0" encoding="UTF-8"?>
<!DOCTYPE svg PUBLIC "-//W3C//DTD SVG 1.1//EN" "http://www.w3.org/Graphics/SVG/1.1/DTD/svg11.dtd">
<!-- Creator: CorelDRAW -->
<svg xmlns="http://www.w3.org/2000/svg" xml:space="preserve" width="2048px" height="2048px" style="shape-rendering:geometricPrecision; text-rendering:geometricPrecision; image-rendering:optimizeQuality; fill-rule:evenodd; clip-rule:evenodd"
viewBox="0 0 2048 2048"
 xmlns:xlink="http://www.w3.org/1999/xlink">
 <defs>
  <style type="text/css">
   <![CDATA[
    .fil2 {fill:none}
    .fil0 {fill:#212121;fill-rule:nonzero}
    .fil1 {fill:#66BB6A;fill-rule:nonzero}
   ]]>
  </style>
 </defs>
 <g id="Layer_x0020_1">
  <metadata id="CorelCorpID_0Corel-Layer"/>
  <path class="fil0" d="M1792 897.307c0,-13.2543 -10.7457,-24 -24,-24 -13.2543,0 -24,10.7457 -24,24l0 841.116 -1440 0 0 -841.116c0,-13.2543 -10.7457,-24 -24,-24 -13.2543,0 -24,10.7457 -24,24l0 865.116c0,13.2543 10.7457,24 24,24l1488 0c13.2543,0 24,-10.7457 24,-24l0 -865.116z"/>
  <path class="fil0" d="M317.651 897.308l706.351 580.772 706.349 -580.772 -706.351 -580.773 -706.349 580.773zm706.351 611.729l-15.1878 18.4689 -742.367 -610.386c-1.8248,-1.25079 -3.50788,-2.77441 -4.98426,-4.56969 -8.41772,-10.2378 -6.94134,-25.363 3.29646,-33.7807l0.0555119 0.068504 742.404 -610.418c8.64213,-8.47323 22.4646,-9.24095 32.0244,-1.38071l-15.2421 18.5386 15.1878 -18.4689 742.367 610.387c1.8248,1.25079 3.50788,2.77441 4.98426,4.56969 8.41772,10.2378 6.94134,25.363 -3.29646,33.7807l-0.0555119 -0.068504 -742.404 610.417c-8.64213,8.47323 -22.4646,9.24095 -32.0244,1.38071l15.2421 -18.5386z"/>
  <path class="fil0" d="M446.326 1053.8c0,13.2543 10.7457,24 24,24 13.2543,0 24,-10.7457 24,-24l0 -167.094 1059.35 0 0 167.095c0,13.2543 10.7457,24 24,24 13.2543,0 24,-10.7457 24,-24l0 -191.095c0,-13.2543 -10.7457,-24 -24,-24l-1107.35 0c-13.2543,0 -24,10.7457 -24,24l0 191.094z"/>
  <polygon class="fil1" points="608,967.999 1440,967.999 1440,1016 608,1016 "/>
  <polygon class="fil1" points="704,1096 1344,1096 1344,1144 704,1144 "/>
  <polygon class="fil1" points="852.047,1224 1195.95,1224 1195.95,1272 852.047,1272 "/>
  <polygon class="fil0" points="719.281,1426.47 448.155,1650.47 417.593,1613.53 688.719,1389.53 "/>
  <polygon class="fil0" points="1354.32,1389.53 1625.45,1613.53 1594.89,1650.47 1323.76,1426.47 "/>
 </g>
 <rect class="fil2" width="2048" height="2048"/>
</svg>
